<?xml version="1.0" standalone="no"?>
<!DOCTYPE svg PUBLIC "-//W3C//DTD SVG 20010904//EN"
 "http://www.w3.org/TR/2001/REC-SVG-20010904/DTD/svg10.dtd">
<svg version="1.0" xmlns="http://www.w3.org/2000/svg"
 width="500.000000pt" height="500.000000pt" viewBox="0 0 500.000000 500.000000"
 preserveAspectRatio="xMidYMid meet">
<metadata>
Created by potrace 1.14, written by Peter Selinger 2001-2017
</metadata>
<g transform="translate(0.000000,500.000000) scale(0.100000,-0.100000)"
fill="#000000" stroke="none">
<path d="M3616 4275 c-36 -55 -39 -79 -42 -395 -1 -173 0 -323 2 -333 3 -10
17 -22 30 -27 l25 -10 -5 -307 c-5 -311 -9 -370 -29 -433 l-11 -35 -6 30 c-3
17 -2 67 3 113 5 52 4 98 -3 122 -9 35 -16 41 -64 59 -110 41 -163 53 -183 40
-15 -9 -34 -6 -93 11 -83 25 -91 26 -174 35 -32 3 -62 7 -65 7 -3 1 -15 -1
-27 -5 -20 -7 -20 -12 -18 -230 2 -162 0 -213 -8 -187 -12 42 -22 50 -65 50
-18 0 -33 3 -33 6 0 12 24 49 36 57 14 8 13 95 -1 297 -3 41 -7 116 -10 165
-6 122 -15 199 -25 215 -6 10 -42 14 -149 15 -78 1 -142 3 -143 6 -2 2 -8 13
-14 24 -9 17 -23 20 -94 23 -133 5 -132 8 -136 -463 -3 -537 -4 -549 -13 -539
-5 5 -12 154 -15 330 -8 395 -7 389 -54 380 -15 -3 -43 -8 -62 -11 -34 -5 -84
-14 -124 -21 -11 -2 -55 -8 -99 -14 -70 -10 -82 -9 -89 4 -12 21 -91 21 -148
1 -23 -8 -46 -13 -50 -10 -4 2 -8 30 -9 61 0 31 -3 59 -5 62 -2 4 -7 34 -10
67 -4 33 -11 94 -16 135 -10 82 -15 135 -30 273 -18 177 -21 192 -39 217 -17
23 -24 25 -87 22 -71 -3 -91 -5 -159 -21 -22 -5 -76 -17 -120 -26 -44 -9 -84
-21 -89 -25 -7 -7 5 -106 21 -162 5 -21 -13 -24 -31 -5 -7 6 -18 45 -25 85 -7
39 -18 72 -24 72 -5 0 -43 -18 -84 -40 -40 -22 -73 -39 -73 -37 0 2 27 25 60
51 43 34 60 54 60 71 0 26 -30 42 -53 28 -66 -40 -179 -131 -183 -148 -5 -19
89 -506 102 -526 9 -15 54 -10 61 7 3 8 -6 74 -21 146 -23 115 -26 152 -12
137 4 -5 82 -383 222 -1077 91 -454 152 -747 220 -1055 15 -64 20 -76 34 -72
24 8 50 -4 50 -22 0 -8 -30 -47 -66 -86 l-66 -71 34 -29 c18 -15 38 -31 43
-35 9 -7 310 -246 345 -275 8 -7 34 -26 57 -42 23 -17 44 -41 47 -55 4 -20 32
-39 148 -99 l143 -73 113 -10 c115 -10 142 -5 142 27 0 9 23 13 81 13 94 1
101 6 94 72 -4 45 -9 213 -6 238 2 17 28 15 35 -4 3 -9 6 -46 6 -82 0 -37 3
-105 7 -151 l6 -83 101 6 c240 15 295 19 305 26 6 3 18 42 26 86 24 122 26
127 41 69 8 -27 14 -69 14 -93 0 -34 6 -48 28 -68 24 -22 33 -24 87 -19 125
13 240 69 348 168 57 53 73 91 43 103 -19 7 -8 43 20 68 55 51 334 547 334
596 0 5 8 10 18 10 40 0 59 40 72 154 12 103 11 110 -6 123 -11 8 -18 17 -18
21 1 4 5 54 8 112 4 58 9 132 12 165 5 60 5 60 -31 85 l-36 25 6 195 c4 107 8
231 10 275 2 44 6 159 10 255 7 206 10 228 33 226 9 0 20 -5 24 -11 4 -5 9 -7
11 -5 3 3 7 136 11 296 7 289 4 325 -27 355 -23 23 -267 252 -327 307 -30 28
-58 52 -61 52 -4 0 -14 -11 -23 -25z m-2765 -418 c-8 -8 -11 -4 -11 14 0 33
14 47 18 19 2 -12 -1 -27 -7 -33z m2103 -1764 c1 -47 5 -67 13 -66 7 2 10 -4
7 -12 -7 -18 -6 -18 -38 -5 -24 9 -26 14 -26 71 0 47 4 65 17 75 10 7 20 11
22 9 2 -2 4 -35 5 -72z"/>
</g>
</svg>
